<?xml version="1.0" standalone="no"?>
<!DOCTYPE svg PUBLIC "-//W3C//DTD SVG 20010904//EN"
 "http://www.w3.org/TR/2001/REC-SVG-20010904/DTD/svg10.dtd">
<svg version="1.0" xmlns="http://www.w3.org/2000/svg"
 width="700.000000pt" height="700.000000pt" viewBox="0 0 700.000000 700.000000"
 preserveAspectRatio="xMidYMid meet">
<metadata>
Created by potrace 1.11, written by Peter Selinger 2001-2013
</metadata>
<g transform="translate(0.000000,700.000000) scale(0.100000,-0.100000)"
fill="#000000" stroke="none">
<path d="M1498 6958 c-79 -54 -148 -143 -179 -235 l-24 -68 0 -3120 0 -3120
23 -67 c47 -135 160 -248 289 -288 64 -20 90 -20 1893 -20 1803 0 1829 0 1893
20 132 41 247 157 290 295 l22 70 0 3110 0 3110 -23 72 c-29 95 -97 184 -180
241 l-64 42 -1938 0 -1938 0 -64 -42z m3857 -159 c55 -26 108 -85 123 -138 18
-57 17 -6197 0 -6255 -16 -54 -90 -128 -144 -144 -60 -18 -3608 -18 -3668 0
-54 16 -128 90 -144 144 -9 32 -12 727 -12 3138 0 3096 0 3096 20 3140 25 52
62 89 115 115 39 20 68 20 1853 21 l1812 0 45 -21z"/>
<path d="M2101 6429 c-137 -27 -244 -137 -271 -279 -14 -72 -14 -2288 0 -2360
22 -116 89 -202 198 -253 l67 -32 1405 0 1405 0 67 32 c109 52 177 138 198
255 7 36 10 463 8 1214 -3 1269 1 1180 -64 1280 -37 55 -99 105 -166 132 -40
16 -142 17 -1423 19 -759 0 -1400 -3 -1424 -8z m2519 -1459 l0 -910 -1120 0
-1120 0 0 910 0 910 1120 0 1120 0 0 -910z"/>
<path d="M2402 2777 c-21 -22 -22 -32 -22 -210 l0 -187 -188 0 c-248 0 -232
14 -232 -211 0 -223 -15 -209 233 -209 l187 0 0 -188 c0 -248 -14 -232 211
-232 223 0 209 -15 209 233 l0 187 188 0 c248 0 232 -14 232 211 0 223 15 209
-233 209 l-187 0 0 188 c0 248 14 232 -211 232 -160 0 -166 -1 -187 -23z"/>
<path d="M4650 2712 c-102 -39 -157 -88 -207 -184 -24 -47 -27 -64 -28 -148 0
-89 2 -99 34 -158 39 -72 88 -120 163 -159 47 -25 64 -28 148 -28 89 0 99 2
158 34 75 41 125 94 161 170 22 47 26 70 26 141 0 101 -27 170 -94 243 -83 90
-251 132 -361 89z"/>
<path d="M3950 2432 c-102 -39 -157 -88 -207 -184 -24 -47 -27 -64 -28 -148 0
-89 2 -99 34 -158 39 -72 88 -120 163 -159 47 -25 64 -28 148 -28 89 0 99 2
158 34 75 41 125 94 161 170 22 47 26 70 26 141 0 101 -27 170 -94 243 -83 90
-251 132 -361 89z"/>
</g>
</svg>
